:FULLY-SPECIFIED
:FORCE-ALL-JOINTS-BE-3DOF
:DEGREES
1
root -2.95645 16.8291 -36.2757 3.79203 -0.409345 -2.77144
lfemur -18.1857 -3.85478 -7.37129
ltibia 37.6337 0 0
lfoot -17.8071 6.78532 0
ltoes -26.1578 0 0
rfemur -19.1521 0.15077 14.7318
rtibia 40.3652 0 0
rfoot -23.1652 -2.86285 0
rtoes -21.0274 0 0
lowerback 7.02591 2.55716 -1.97249
upperback -3.14202 3.31583 1.27229
thorax -7.43554 1.75645 1.99661
lowerneck -4.68188 -4.04088 -6.84108
upperneck 4.69893 -5.30737 6.47589
head 2.76948 -2.5844 3.14763
lclavicle 1.91563e-15 -9.24349e-15 0
lhumerus -27.0689 -5.33108 89.6453
lradius 25.7364 0 0
lwrist -30.6252 0 0
lhand -28.8405 29.9909 0
lfingers 7.12502 0 0
lthumb -2.19771 59.9594 0
rclavicle 1.91563e-15 -9.24349e-15 0
rhumerus -32.8355 4.71181 -81.727
rradius 32.9783 0 0
rwrist 3.84135 0 0
rhand -24.1523 -25.0894 0
rfingers 7.12502 0 0
rthumb 2.33029 -55.0564 0
2
root -2.95731 16.8258 -36.2792 3.72204 -0.424148 -2.75989
lfemur -18.1478 -3.68338 -7.40135
ltibia 37.684 0 0
lfoot -17.8336 6.70493 0
ltoes -25.8338 0 0
rfemur -19.1384 0.0539711 14.7204
rtibia 40.4463 0 0
rfoot -23.1676 -2.73478 0
rtoes -20.6664 0 0
lowerback 7.14289 2.55105 -1.97438
upperback -3.12478 3.30556 1.27402
thorax -7.48447 1.7515 1.99719
lowerneck -4.66362 -4.03271 -6.8386
upperneck 4.68693 -5.29719 6.47628
head 2.76117 -2.57957 3.14794
lclavicle 2.03142e-15 -9.24371e-15 0
lhumerus -27.054 -5.32529 89.6639
lradius 25.7349 0 0
lwrist -30.6074 0 0
lhand -28.8429 29.9823 0
lfingers 7.12502 0 0
lthumb -2.20004 59.9508 0
rclavicle 2.03142e-15 -9.24371e-15 0
rhumerus -32.8209 4.66443 -81.6959
rradius 32.9138 0 0
rwrist 3.82375 0 0
rhand -24.1066 -25.126 0
rfingers 7.12502 0 0
rthumb 2.37445 -55.0923 0
3
root -2.95826 16.8226 -36.2829 3.65086 -0.440103 -2.74846
lfemur -18.1064 -3.51482 -7.43097
ltibia 37.7298 0 0
lfoot -17.8577 6.62849 0
ltoes -25.5158 0 0
rfemur -19.1226 -0.0411486 14.7094
rtibia 40.524 0 0
rfoot -23.168 -2.60566 0
rtoes -20.3056 0 0
lowerback 7.26219 2.54526 -1.97684
upperback -3.10688 3.2956 1.27588
thorax -7.53407 1.74673 1.99811
lowerneck -4.64681 -4.0244 -6.8362
upperneck 4.67442 -5.28673 6.47718
head 2.75296 -2.57457 3.14843
lclavicle 2.15564e-15 -9.24836e-15 0
lhumerus -27.0389 -5.32016 89.6834
lradius 25.7341 0 0
lwrist -30.5892 0 0
lhand -28.8454 29.9732 0
lfingers 7.12502 0 0
lthumb -2.20248 59.9416 0
rclavicle 2.15564e-15 -9.24836e-15 0
rhumerus -32.806 4.61647 -81.6648
rradius 32.8488 0 0
rwrist 3.80682 0 0
rhand -24.063 -25.1622 0
rfingers 7.12502 0 0
rthumb 2.41657 -55.1279 0
4
root -2.95931 16.8196 -36.2868 3.57858 -0.457118 -2.73715
lfemur -18.0618 -3.34885 -7.46019
ltibia 37.7717 0 0
lfoot -17.8797 6.55569 0
ltoes -25.2032 0 0
rfemur -19.1048 -0.134722 14.6988
rtibia 40.5986 0 0
rfoot -23.1665 -2.47558 0
rtoes -19.9449 0 0
lowerback 7.38361 2.53974 -1.97983
upperback -3.08835 3.28592 1.27788
thorax -7.58428 1.74213 1.99936
lowerneck -4.63134 -4.01596 -6.83386
upperneck 4.66146 -5.27602 6.47857
head 2.74485 -2.56942 3.1491
lclavicle 2.28762e-15 -9.2571e-15 0
lhumerus -27.0237 -5.31563 89.7035
lradius 25.7339 0 0
lwrist -30.5704 0 0
lhand -28.8481 29.9636 0
lfingers 7.12502 0 0
lthumb -2.20501 59.932 0
rclavicle 2.28762e-15 -9.2571e-15 0
rhumerus -32.7911 4.56798 -81.6337
rradius 32.7835 0 0
rwrist 3.79051 0 0
rhand -24.0213 -25.1982 0
rfingers 7.12502 0 0
rthumb 2.45681 -55.1634 0
5
root -2.96044 16.8168 -36.2908 3.50531 -0.475103 -2.72594
lfemur -18.0143 -3.18527 -7.48904
ltibia 37.8098 0 0
lfoot -17.8997 6.48621 0
ltoes -24.8957 0 0
rfemur -19.0851 -0.226881 14.6886
rtibia 40.6704 0 0
rfoot -23.1632 -2.34462 0
rtoes -19.5843 0 0
lowerback 7.50697 2.53448 -1.98329
upperback -3.06927 3.27649 1.28
thorax -7.63506 1.73767 2.0009
lowerneck -4.61708 -4.00739 -6.83159
upperneck 4.64806 -5.26508 6.4804
head 2.73682 -2.56412 3.14992
lclavicle 2.42668e-15 -9.26958e-15 0
lhumerus -27.0083 -5.31165 89.7243
lradius 25.7343 0 0
lwrist -30.5512 0 0
lhand -28.8508 29.9536 0
lfingers 7.12502 0 0
lthumb -2.20762 59.922 0
rclavicle 2.42668e-15 -9.26958e-15 0
rhumerus -32.776 4.51901 -81.6025
rradius 32.7178 0 0
rwrist 3.77477 0 0
rhand -23.9814 -25.234 0
rfingers 7.12502 0 0
rthumb 2.49534 -55.1986 0
6
root -2.96165 16.814 -36.2949 3.43113 -0.493966 -2.71482
lfemur -17.9641 -3.02384 -7.51757
ltibia 37.8446 0 0
lfoot -17.918 6.41975 0
ltoes -24.5927 0 0
rfemur -19.0638 -0.317758 14.6788
rtibia 40.7397 0 0
rfoot -23.1584 -2.21287 0
rtoes -19.2239 0 0
lowerback 7.6321 2.52945 -1.98719
upperback -3.04967 3.26729 1.28222
thorax -7.68636 1.73334 2.00271
lowerneck -4.60393 -3.99871 -6.82938
upperneck 4.63429 -5.25394 6.48262
head 2.72888 -2.55869 3.15089
lclavicle 2.57218e-15 -9.28545e-15 0
lhumerus -26.9929 -5.30818 89.7458
lradius 25.7352 0 0
lwrist -30.5315 0 0
lhand -28.8535 29.9433 0
lfingers 7.12502 0 0
lthumb -2.21031 59.9117 0
rclavicle 2.57218e-15 -9.28545e-15 0
rhumerus -32.7607 4.4696 -81.5713
rradius 32.6517 0 0
rwrist 3.75953 0 0
rhand -23.9431 -25.2696 0
rfingers 7.12502 0 0
rthumb 2.53231 -55.2337 0
7
root -2.96292 16.8114 -36.2991 3.35614 -0.513618 -2.70379
lfemur -17.9115 -2.86435 -7.54579
ltibia 37.8764 0 0
lfoot -17.9346 6.35598 0
ltoes -24.2938 0 0
rfemur -19.0411 -0.407487 14.6693
rtibia 40.8066 0 0
rfoot -23.1523 -2.0804 0
rtoes -18.8635 0 0
lowerback 7.7588 2.52463 -1.99147
upperback -3.02962 3.25831 1.28455
thorax -7.7381 1.72914 2.00476
lowerneck -4.59176 -3.98994 -6.82722
upperneck 4.62017 -5.2426 6.4852
head 2.721 -2.55314 3.15198
lclavicle 2.72343e-15 -9.30435e-15 0
lhumerus -26.9774 -5.30516 89.7678
lradius 25.7366 0 0
lwrist -30.5116 0 0
lhand -28.8564 29.9326 0
lfingers 7.12502 0 0
lthumb -2.21307 59.9009 0
rclavicle 2.72343e-15 -9.30435e-15 0
rhumerus -32.7454 4.41979 -81.5401
rradius 32.5854 0 0
rwrist 3.74475 0 0
rhand -23.9063 -25.3049 0
rfingers 7.12502 0 0
rthumb 2.56789 -55.2686 0
8
root -2.96425 16.8089 -36.3034 3.28042 -0.533966 -2.69283
lfemur -17.8569 -2.70656 -7.57375
ltibia 37.9055 0 0
lfoot -17.9498 6.29461 0
ltoes -23.9985 0 0
rfemur -19.017 -0.496199 14.6601
rtibia 40.8715 0 0
rfoot -23.1449 -1.9473 0
rtoes -18.5032 0 0
lowerback 7.88691 2.51999 -1.9961
upperback -3.00916 3.24951 1.28695
thorax -7.79026 1.72504 2.00702
lowerneck -4.58048 -3.98107 -6.82511
upperneck 4.60574 -5.2311 6.48809
head 2.71318 -2.54749 3.15318
lclavicle 2.87978e-15 -9.32595e-15 0
lhumerus -26.9618 -5.30253 89.7902
lradius 25.7384 0 0
lwrist -30.4912 0 0
lhand -28.8593 29.9216 0
lfingers 7.12502 0 0
lthumb -2.21589 59.8899 0
rclavicle 2.87978e-15 -9.32595e-15 0
rhumerus -32.7299 4.36963 -81.5088
rradius 32.5189 0 0
rwrist 3.73037 0 0
rhand -23.8707 -25.3401 0
rfingers 7.12502 0 0
rthumb 2.60223 -55.3034 0
9
root -2.96563 16.8065 -36.3078 3.20409 -0.554919 -2.68194
lfemur -17.8004 -2.55027 -7.60148
ltibia 37.9324 0 0
lfoot -17.9638 6.23532 0
ltoes -23.7063 0 0
rfemur -18.9918 -0.584027 14.6511
rtibia 40.9347 0 0
rfoot -23.1364 -1.81365 0
rtoes -18.143 0 0
lowerback 8.01623 2.51552 -2.00102
upperback -2.98834 3.24087 1.28944
thorax -7.84276 1.72103 2.00946
lowerneck -4.56995 -3.97213 -6.82303
upperneck 4.59105 -5.21946 6.49126
head 2.70542 -2.54175 3.15448
lclavicle 3.04057e-15 -9.34987e-15 0
lhumerus -26.9461 -5.30025 89.8131
lradius 25.7406 0 0
lwrist -30.4707 0 0
lhand -28.8623 29.9104 0
lfingers 7.12502 0 0
lthumb -2.21876 59.8787 0
rclavicle 3.04057e-15 -9.34987e-15 0
rhumerus -32.7144 4.31917 -81.4775
rradius 32.4521 0 0
rwrist 3.71635 0 0
rhand -23.8362 -25.3751 0
rfingers 7.12502 0 0
rthumb 2.63551 -55.338 0
